<svg width="75" height="75" viewBox="0 0 75 75" fill="none" xmlns="http://www.w3.org/2000/svg">
<g clip-path="url(#clip0)">
<path d="M68.8034 51.8689H6.59448V62.0558H68.8034V51.8689Z" fill="#3C92CA"/>
<path d="M37.5076 67.2334C36.7416 67.2334 36.1136 67.8615 36.1136 68.6274V72.2119H24.1191C23.3532 72.2119 22.7251 72.84 22.7251 73.6059C22.7251 74.3719 23.3532 74.9999 24.1191 74.9999H50.8961C51.662 74.9999 52.2901 74.3719 52.2901 73.6059C52.2901 72.84 51.662 72.2119 50.8961 72.2119H38.9016V68.6274C38.9016 67.8461 38.2735 67.2334 37.5076 67.2334Z" fill="black"/>
<path d="M8.15702 63.4344H66.8427C68.6962 63.4344 70.1974 61.9331 70.1974 60.0796V19.6844C70.1974 17.8308 68.6962 16.3296 66.8427 16.3296H50.4211C49.6552 16.3296 49.0271 16.9577 49.0271 17.7236C49.0271 18.4895 49.6552 19.1176 50.4211 19.1176H66.8427C67.1644 19.1176 67.4248 19.378 67.4248 19.6997V60.1102C67.4248 60.4319 67.1644 60.6923 66.8427 60.6923H8.15702C7.83533 60.6923 7.57492 60.4319 7.57492 60.1102V53.3853H62.9364C63.7024 53.3853 64.3304 52.7573 64.3304 51.9914C64.3304 51.2254 63.7024 50.5974 62.9364 50.5974H55.9358C55.3537 46.5686 51.8764 43.4589 47.6944 43.4589C46.9285 43.4589 46.3004 44.0869 46.3004 44.8529C46.3004 45.6188 46.9285 46.2469 47.6944 46.2469C50.3445 46.2469 52.5657 48.1157 53.1172 50.5974H46.7753C46.2391 46.3235 42.8384 42.9227 38.5645 42.3713V32.7052C38.5645 31.9393 37.9364 31.3112 37.1705 31.3112C36.4046 31.3112 35.7765 31.9393 35.7765 32.7052V42.4325C31.6711 43.1219 28.4542 46.446 27.918 50.5974H21.5455C22.097 48.1157 24.3182 46.2469 26.9683 46.2469C27.7342 46.2469 28.3623 45.6188 28.3623 44.8529C28.3623 44.0869 27.7342 43.4589 26.9683 43.4589C22.7863 43.4589 19.309 46.5686 18.7269 50.5974H6.87026C6.67112 50.4901 6.44134 50.4135 6.19624 50.4135C5.43031 50.4135 4.80225 51.0416 4.80225 51.8075V60.0949C4.81756 61.9331 6.31879 63.4344 8.15702 63.4344ZM37.3696 45.052C40.6631 45.052 43.4205 47.4417 43.9873 50.582H30.7673C31.3188 47.4417 34.0608 45.052 37.3696 45.052Z" fill="black"/>
<path d="M6.19624 47.5644C6.96217 47.5644 7.59024 46.9363 7.59024 46.1704V19.6692C7.59024 19.3475 7.85065 19.0871 8.17234 19.0871H24.6399C25.4058 19.0871 26.0339 18.459 26.0339 17.6931C26.0339 16.9271 25.4058 16.2991 24.6399 16.2991H8.15702C6.30347 16.2991 4.80225 17.8003 4.80225 19.6539V46.1551C4.81756 46.9516 5.43031 47.5644 6.19624 47.5644Z" fill="black"/>
<path d="M37.3851 58.8082C38.2734 58.8082 38.9935 58.0881 38.9935 57.1998C38.9935 56.3114 38.2734 55.5913 37.3851 55.5913C36.4967 55.5913 35.7766 56.3114 35.7766 57.1998C35.7766 58.0881 36.4967 58.8082 37.3851 58.8082Z" fill="black"/>
<path d="M25.0842 34.8805C25.0842 35.6464 25.7123 36.2745 26.4782 36.2745H29.3275V39.4914C29.3275 40.2573 29.9556 40.8854 30.7215 40.8854C31.4874 40.8854 32.1155 40.2573 32.1155 39.4914V36.2745H32.2993C33.0652 36.2745 33.6933 35.6464 33.6933 34.8805C33.6933 34.1146 33.0652 33.4865 32.2993 33.4865H27.8569V31.9393C27.8569 31.4185 28.0101 30.913 28.3165 30.4841L30.8287 26.8842C31.4261 26.0263 31.7478 25.0153 31.7478 23.9583V11.9026C31.7478 10.769 32.1614 9.66605 32.8967 8.80821L37.4157 3.52328L41.95 8.79289C42.7007 9.66605 43.1143 10.769 43.1143 11.9026V24.0349C43.1143 25 43.39 25.9497 43.9108 26.777L46.2546 30.4687C46.515 30.8823 46.6529 31.3419 46.6529 31.8321V33.4712H42.4402C41.6743 33.4712 41.0462 34.0993 41.0462 34.8652C41.0462 35.5852 41.5824 36.152 42.2717 36.2439V39.4761C42.2717 40.242 42.8998 40.8701 43.6657 40.8701C44.4317 40.8701 45.0597 40.242 45.0597 39.4761V36.2592H48.0315C48.7975 36.2592 49.4255 35.6311 49.4255 34.8652V31.8321C49.4255 30.8211 49.1345 29.8407 48.5983 28.9828L46.2546 25.291C46.0095 24.9081 45.8869 24.4792 45.8869 24.0349V11.9179C45.8869 10.1103 45.2282 8.36397 44.0487 6.98529L38.4421 0.474877C38.1817 0.168505 37.7987 0 37.3851 0C36.9868 0 36.5885 0.183823 36.3281 0.490196L30.7674 7.00061C29.6032 8.36397 28.9598 10.1103 28.9598 11.9026V23.9736C28.9598 24.4485 28.822 24.9234 28.5462 25.3064L26.034 28.9062C25.4059 29.81 25.0842 30.8517 25.0842 31.9546V34.8805Z" fill="black"/>
</g>
<defs>
<clipPath id="clip0">
<rect width="75" height="75" fill="white"/>
</clipPath>
</defs>
</svg>