<svg width="45" height="40" viewBox="0 0 45 60" fill="none" xmlns="http://www.w3.org/2000/svg">
<g clip-path="url(#clip0)">
<path d="M34.8757 1.80099H43.4182C43.5431 1.80408 43.662 1.85507 43.7503 1.94341C43.8387 2.03175 43.8897 2.15068 43.8927 2.27558V24.6661C43.8897 24.791 43.8387 24.9099 43.7503 24.9982C43.662 25.0866 43.5431 25.1376 43.4182 25.1406H34.8757C34.7508 25.1376 34.6319 25.0866 34.5435 24.9982C34.4552 24.9099 34.4042 24.791 34.4011 24.6661V2.27558C34.4011 2.14971 34.4511 2.029 34.5401 1.94C34.6291 1.851 34.7498 1.80099 34.8757 1.80099Z" fill="#1E7BBF"/>
<path d="M22.2323 58.4951V48.8575C22.2323 48.5638 22.1156 48.2821 21.9079 48.0745C21.7003 47.8668 21.4186 47.7501 21.1249 47.7501C20.8312 47.7501 20.5496 47.8668 20.3419 48.0745C20.1342 48.2821 20.0176 48.5638 20.0176 48.8575V58.4951C20.0176 58.7888 20.1342 59.0705 20.3419 59.2781C20.5496 59.4858 20.8312 59.6025 21.1249 59.6025C21.4186 59.6025 21.7003 59.4858 21.9079 59.2781C22.1156 59.0705 22.2323 58.7888 22.2323 58.4951Z" fill="black"/>
<path d="M1.10736 37.9421H10.745C11.0387 37.9421 11.3203 37.8255 11.528 37.6178C11.7357 37.4101 11.8524 37.1285 11.8524 36.8348C11.8524 36.5411 11.7357 36.2594 11.528 36.0518C11.3203 35.8441 11.0387 35.7274 10.745 35.7274H1.10736C0.813667 35.7274 0.532006 35.8441 0.324337 36.0518C0.116667 36.2594 0 36.5411 0 36.8348C0 37.1285 0.116667 37.4101 0.324337 37.6178C0.532006 37.8255 0.813667 37.9421 1.10736 37.9421Z" fill="black"/>
<path d="M42.262 36.8348C42.2611 36.5414 42.1441 36.2603 41.9366 36.0528C41.7292 35.8454 41.4481 35.7284 41.1547 35.7274H31.517C31.2233 35.7274 30.9417 35.8441 30.734 36.0518C30.5263 36.2594 30.4097 36.5411 30.4097 36.8348C30.4097 37.1285 30.5263 37.4101 30.734 37.6178C30.9417 37.8255 31.2233 37.9421 31.517 37.9421H41.1547C41.4481 37.9412 41.7292 37.8242 41.9366 37.6168C42.1441 37.4093 42.2611 37.1282 42.262 36.8348Z" fill="black"/>
<path d="M36.2749 52.1918C36.0996 52.3716 35.992 52.6065 35.9702 52.8566C35.9484 53.1068 36.0138 53.3568 36.1553 53.5642C36.2968 53.7716 36.5057 53.9237 36.7466 53.9947C36.9875 54.0656 37.2455 54.051 37.4768 53.9534C37.7082 53.8558 37.8986 53.6812 38.0159 53.4592C38.1332 53.2371 38.17 52.9814 38.1202 52.7353C38.0704 52.4892 37.937 52.2679 37.7426 52.1089C37.5482 51.95 37.3048 51.8632 37.0537 51.8632C36.7608 51.8653 36.4808 51.9835 36.2749 52.1918Z" fill="black"/>
<path d="M33.2938 49.2104C33.4986 49.0029 33.6134 48.7231 33.6134 48.4316C33.6134 48.1401 33.4986 47.8603 33.2938 47.6528C33.1922 47.5492 33.071 47.4668 32.9373 47.4104C32.8036 47.354 32.6601 47.3247 32.515 47.3243C32.3697 47.3237 32.2258 47.3525 32.092 47.4089C31.9581 47.4654 31.8371 47.5484 31.7362 47.6528C31.5296 47.8594 31.4136 48.1395 31.4136 48.4316C31.4136 48.7237 31.5296 49.0039 31.7362 49.2104C31.9427 49.4169 32.2229 49.533 32.515 49.533C32.8071 49.533 33.0872 49.4169 33.2938 49.2104Z" fill="black"/>
<path d="M33.9995 49.9162C33.8455 50.0702 33.7406 50.2665 33.6981 50.4801C33.6557 50.6937 33.6775 50.9151 33.7609 51.1163C33.8442 51.3175 33.9854 51.4895 34.1665 51.6105C34.3476 51.7315 34.5605 51.7961 34.7783 51.7961C34.9961 51.7961 35.209 51.7315 35.3901 51.6105C35.5712 51.4895 35.7123 51.3175 35.7957 51.1163C35.879 50.9151 35.9009 50.6937 35.8584 50.4801C35.8159 50.2665 35.7111 50.0702 35.5571 49.9162C35.4549 49.8143 35.3333 49.7338 35.1996 49.6795C35.0658 49.6251 34.9226 49.5981 34.7783 49.5998C34.6336 49.5953 34.4895 49.621 34.3554 49.6755C34.2212 49.73 34.1 49.812 33.9995 49.9162Z" fill="black"/>
<path d="M31.0182 46.9349C31.1196 46.8323 31.1998 46.7107 31.2541 46.5771C31.3084 46.4434 31.3358 46.3003 31.3346 46.1561C31.3334 45.9388 31.2679 45.7267 31.1465 45.5466C31.025 45.3664 30.8529 45.2262 30.652 45.1436C30.451 45.061 30.2301 45.0397 30.017 45.0824C29.8039 45.1251 29.6083 45.2298 29.4546 45.3835C29.301 45.5371 29.1962 45.7328 29.1535 45.9458C29.1109 46.1589 29.1321 46.3798 29.2147 46.5808C29.2973 46.7818 29.4376 46.9538 29.6177 47.0753C29.7979 47.1968 30.01 47.2622 30.2272 47.2634C30.3744 47.2646 30.5203 47.2362 30.6562 47.1797C30.7921 47.1232 30.9152 47.04 31.0182 46.9349Z" fill="black"/>
<path d="M7.02124 53.0436C7.12351 52.9413 7.20464 52.8199 7.25999 52.6863C7.31534 52.5526 7.34383 52.4094 7.34383 52.2648C7.34383 52.1201 7.31534 51.9769 7.25999 51.8433C7.20464 51.7097 7.12351 51.5883 7.02124 51.486C6.91896 51.3837 6.79755 51.3026 6.66392 51.2472C6.53029 51.1919 6.38707 51.1634 6.24244 51.1634C6.0978 51.1634 5.95458 51.1919 5.82095 51.2472C5.68733 51.3026 5.56591 51.3837 5.46364 51.486C5.36221 51.5886 5.28205 51.7102 5.22775 51.8438C5.17345 51.9775 5.1461 52.1205 5.14725 52.2648C5.15053 52.555 5.26357 52.8333 5.46364 53.0436C5.56622 53.145 5.68782 53.2252 5.82147 53.2795C5.95512 53.3338 6.09818 53.3611 6.24244 53.36C6.38693 53.3628 6.53049 53.3363 6.66438 53.2819C6.79827 53.2275 6.91969 53.1464 7.02124 53.0436Z" fill="black"/>
<path d="M10.7814 46.6306C10.491 46.6328 10.2123 46.746 10.0026 46.947C9.84866 47.101 9.74379 47.2972 9.70132 47.5109C9.65885 47.7245 9.68067 47.9459 9.76403 48.1471C9.84739 48.3483 9.98854 48.5203 10.1696 48.6413C10.3507 48.7623 10.5636 48.8269 10.7814 48.8269C10.9992 48.8269 11.2122 48.7623 11.3933 48.6413C11.5744 48.5203 11.7155 48.3483 11.7989 48.1471C11.8822 47.9459 11.904 47.7245 11.8616 47.5109C11.8191 47.2972 11.7142 47.101 11.5602 46.947C11.458 46.8451 11.3365 46.7646 11.2028 46.7103C11.069 46.6559 10.9258 46.6288 10.7814 46.6306Z" fill="black"/>
<path d="M9.28473 50.7801C9.48953 50.5727 9.60437 50.2929 9.60437 50.0013C9.60437 49.7098 9.48953 49.43 9.28473 49.2225C9.18338 49.1186 9.06226 49.036 8.92851 48.9797C8.79476 48.9233 8.65108 48.8942 8.50593 48.8942C8.36078 48.8942 8.2171 48.9233 8.08334 48.9797C7.94959 49.036 7.82848 49.1186 7.72713 49.2225C7.52058 49.4291 7.40454 49.7092 7.40454 50.0013C7.40454 50.2934 7.52058 50.5736 7.72713 50.7801C7.93368 50.9867 8.21382 51.1027 8.50593 51.1027C8.79803 51.1027 9.07818 50.9867 9.28473 50.7801Z" fill="black"/>
<path d="M14.1522 45.4503C14.1536 45.2676 14.1097 45.0874 14.0246 44.9257C13.9394 44.7641 13.8155 44.626 13.6641 44.5238C13.5126 44.4217 13.3382 44.3586 13.1564 44.3402C12.9746 44.3218 12.7911 44.3486 12.6222 44.4184C12.4534 44.4881 12.3044 44.5985 12.1885 44.7398C12.0727 44.8811 11.9936 45.0489 11.9583 45.2281C11.9231 45.4074 11.9327 45.5926 11.9864 45.7673C12.0401 45.9419 12.1361 46.1006 12.266 46.2291C12.3686 46.3305 12.4902 46.4107 12.6239 46.465C12.7575 46.5193 12.9006 46.5466 13.0448 46.5455C13.3351 46.5422 13.6133 46.4291 13.8236 46.2291C13.9277 46.1278 14.0104 46.0067 14.0668 45.873C14.1233 45.7392 14.1523 45.5955 14.1522 45.4503Z" fill="black"/>
<path d="M0.194625 22.5851C0.195592 24.234 0.851035 25.8151 2.01697 26.981C3.1829 28.147 4.76397 28.8024 6.41285 28.8034H16.0748V35.7761C16.0748 38.7087 16.9266 40.8261 18.6303 42.0673C21.3074 44.0386 24.9945 42.9069 25.1405 42.8583C25.3631 42.7883 25.5576 42.649 25.6955 42.4607C25.8334 42.2725 25.9075 42.0451 25.9072 41.8118V33.9994C25.9072 27.842 33.0502 25.7369 33.3544 25.6517C33.4925 25.6142 33.6211 25.5478 33.7317 25.457C33.9236 25.6992 34.1677 25.895 34.4458 26.0299C34.7239 26.1647 35.0289 26.2351 35.3379 26.2358H42.9434C43.4884 26.2345 44.0108 26.0174 44.3962 25.632C44.7816 25.2466 44.9986 24.7243 44.9999 24.1793V2.75011C44.9986 2.20508 44.7816 1.68274 44.3962 1.29735C44.0108 0.911956 43.4884 0.694876 42.9434 0.69359H35.3623C35.0012 0.693855 34.6466 0.789691 34.3346 0.971361C34.0225 1.15303 33.7641 1.41406 33.5856 1.72793C32.4313 0.617872 30.8916 -0.00150267 29.2901 -2.78899e-05H10.1852C5.96261 -2.78899e-05 3.27332 2.21468 2.79874 6.07217L0.231131 22.4148C0.206211 22.4681 0.193728 22.5263 0.194625 22.5851ZM35.4961 2.9083H42.7852V24.0332H35.4961V2.9083ZM4.96477 6.38856V6.35205C5.3055 3.60192 7.05779 2.20251 10.173 2.20251H29.2779C30.3429 2.20251 31.3643 2.62559 32.1174 3.37868C32.8705 4.13177 33.2936 5.15317 33.2936 6.2182V23.5221C33.1208 23.4836 32.9412 23.4877 32.7703 23.5343C32.4053 23.6317 23.7168 26.1628 23.7168 33.9994V40.9234C22.7676 41.0695 21.1249 41.1546 19.9445 40.2907C18.8493 39.4875 18.2895 37.9664 18.2895 35.7761V27.696C18.2886 27.4026 18.1716 27.1215 17.9641 26.9141C17.7567 26.7066 17.4756 26.5896 17.1822 26.5887H6.41285C5.36242 26.5889 4.35372 26.1775 3.60303 25.4428C2.85234 24.708 2.41945 23.7084 2.39717 22.6582L4.96477 6.38856Z" fill="black"/>
</g>
<defs>
<clipPath id="clip0">
<rect width="45" height="59.6025" fill="white"/>
</clipPath>
</defs>
</svg>
