<svg width="45" height="40" viewBox="0 0 45 38" fill="none" xmlns="http://www.w3.org/2000/svg">
    <path d="M42.6571 35.0223H23.8493C23.6504 35.0227 23.4534 34.9887 23.2696 34.9222C23.0858 34.8558 22.9188 34.7582 22.7781 34.635C22.6375 34.5119 22.526 34.3656 22.4502 34.2046C22.3743 34.0436 22.3355 33.8711 22.3359 33.6969V17.8409H44.1613V33.6969C44.162 33.8705 44.1237 34.0425 44.0484 34.203C43.9732 34.3636 43.8626 34.5096 43.7229 34.6327C43.5832 34.7558 43.4171 34.8535 43.2342 34.9204C43.0514 34.9872 42.8552 35.0219 42.6571 35.0223Z" fill="#1E7BBF"/>
    <path d="M21.6612 9.09607H27.2954V10.7248C27.2954 10.9175 27.3828 11.1023 27.5383 11.2385C27.6939 11.3748 27.9049 11.4513 28.125 11.4513C28.345 11.4513 28.556 11.3748 28.7116 11.2385C28.8672 11.1023 28.9546 10.9175 28.9546 10.7248V8.37192C28.9539 8.17943 28.8662 7.995 28.7108 7.85888C28.5554 7.72277 28.3448 7.64602 28.125 7.64539H0.829618C0.609812 7.64602 0.399214 7.72277 0.243786 7.85888C0.0883586 7.995 0.000721077 8.17943 0 8.37192V31.9964C0.00432984 33.3271 0.609878 34.6023 1.68435 35.5432C2.75882 36.4842 4.21487 37.0145 5.73439 37.0183H18.3519C18.5719 37.0183 18.7829 36.9418 18.9385 36.8055C19.0941 36.6693 19.1815 36.4845 19.1815 36.2918C19.1815 36.0991 19.0941 35.9143 18.9385 35.778C18.7829 35.6418 18.5719 35.5652 18.3519 35.5652H5.73439C4.65397 35.5642 3.61813 35.1878 2.85416 34.5188C2.09018 33.8497 1.66044 32.9426 1.65924 31.9964V9.09607H21.6612Z" fill="black"/>
    <path d="M27.3912 17.1222H22.336C22.1162 17.1229 21.9056 17.1996 21.7501 17.3357C21.5947 17.4719 21.5071 17.6563 21.5063 17.8488V32.3556C21.5071 33.2553 21.9155 34.118 22.642 34.7542C23.3685 35.3904 24.3536 35.7481 25.3809 35.7488H41.1255C42.1529 35.7481 43.1379 35.3904 43.8644 34.7542C44.5909 34.118 44.9993 33.2553 45.0001 32.3556V17.8408C44.9993 17.6483 44.9117 17.4639 44.7563 17.3278C44.6008 17.1916 44.3902 17.1149 44.1704 17.1143H39.1107L27.3912 17.1222ZM39.1198 18.5673H43.3408V32.3556C43.3401 32.87 43.1065 33.3631 42.6912 33.7268C42.2759 34.0905 41.7128 34.2951 41.1255 34.2957H25.3764C24.7891 34.2951 24.226 34.0905 23.8107 33.7268C23.3954 33.3631 23.1618 32.87 23.161 32.3556V18.5673H39.1152H39.1198ZM37.4514 17.1222H29.0459H37.4514Z" fill="black"/>
    <path d="M7.91686 9.07766C7.9822 9.09344 8.04965 9.1015 8.11743 9.10161C8.3306 9.10428 8.53689 9.03561 8.6942 8.90961C8.85152 8.78361 8.948 8.60978 8.96396 8.4236C8.97992 8.23742 8.91414 8.05293 8.78006 7.90778C8.64598 7.76262 8.4537 7.66775 8.24247 7.64253C8.03124 7.6173 7.81698 7.66362 7.64342 7.77203C7.46986 7.88045 7.35008 8.04278 7.30853 8.2259C7.26698 8.40903 7.3068 8.59913 7.41985 8.75742C7.5329 8.91571 7.71067 9.03024 7.91686 9.07766Z" fill="black"/>
    <path d="M8.12214 11.6885C8.23067 11.6885 8.33811 11.6696 8.43826 11.633C8.53841 11.5964 8.62927 11.5428 8.70558 11.4752C8.7819 11.4076 8.84214 11.3274 8.88284 11.2393C8.92353 11.1512 8.94387 11.0569 8.94266 10.9619V10.9324C8.94634 10.8355 8.92773 10.739 8.88794 10.6486C8.84816 10.5581 8.78801 10.4756 8.71107 10.406C8.63414 10.3363 8.54199 10.2809 8.44011 10.2431C8.33823 10.2053 8.2287 10.1858 8.11804 10.1858C8.00738 10.1858 7.89786 10.2053 7.79598 10.2431C7.6941 10.2809 7.60195 10.3363 7.52501 10.406C7.44808 10.4756 7.38792 10.5581 7.34814 10.6486C7.30835 10.739 7.28975 10.8355 7.29342 10.9324V10.9643C7.2958 11.1564 7.38396 11.34 7.53904 11.4758C7.69411 11.6116 7.90376 11.6888 8.12306 11.6909L8.12214 11.6885Z" fill="black"/>
    <path d="M7.83127 6.45654C7.94991 6.50926 8.08113 6.53662 8.21417 6.53638C8.4146 6.53489 8.60748 6.4692 8.7564 6.3517C8.90532 6.23421 8.99998 6.07304 9.02251 5.89862C9.04504 5.72419 8.99388 5.54858 8.87869 5.40492C8.7635 5.26126 8.59225 5.1595 8.39726 5.11885C8.20227 5.07819 7.99702 5.10144 7.82027 5.18423C7.64352 5.26701 7.50748 5.40359 7.43784 5.56819C7.36819 5.73279 7.36976 5.91403 7.44224 6.07769C7.51472 6.24134 7.65311 6.37611 7.83127 6.45654Z" fill="black"/>
    <path d="M8.80393 4.15484C8.92257 4.20756 9.05378 4.23492 9.18682 4.23468C9.38726 4.23319 9.58014 4.1675 9.72906 4.05C9.87798 3.9325 9.97264 3.77132 9.99517 3.59689C10.0177 3.42246 9.96654 3.24684 9.85135 3.10318C9.73616 2.95951 9.5649 2.85775 9.36991 2.81709C9.17492 2.77643 8.96968 2.79969 8.79293 2.88247C8.61617 2.96526 8.48014 3.10185 8.41049 3.26645C8.34085 3.43106 8.34242 3.6123 8.4149 3.77597C8.48738 3.93964 8.62576 4.0744 8.80393 4.15484Z" fill="black"/>
    <path d="M10.9092 2.46935C11.0278 2.52207 11.159 2.54943 11.292 2.54919C11.4925 2.54771 11.6854 2.48202 11.8343 2.36452C11.9832 2.24703 12.0779 2.08586 12.1004 1.91143C12.1229 1.73701 12.0718 1.56139 11.9566 1.41774C11.8414 1.27408 11.6701 1.17232 11.4751 1.13166C11.2801 1.091 11.0749 1.11426 10.8982 1.19704C10.7214 1.27983 10.5854 1.41641 10.5157 1.58101C10.4461 1.74561 10.4476 1.92684 10.5201 2.0905C10.5926 2.25416 10.731 2.38892 10.9092 2.46935Z" fill="black"/>
    <path d="M14.0935 1.75082C14.2121 1.80354 14.3433 1.83089 14.4764 1.83065C14.661 1.83223 14.8409 1.77921 14.9869 1.68017C15.1329 1.58113 15.2364 1.44185 15.2808 1.28488C15.3252 1.1279 15.3078 0.962402 15.2315 0.815147C15.1552 0.667891 15.0243 0.54749 14.8602 0.473419C14.6668 0.384487 14.4409 0.366489 14.2323 0.423384C14.0237 0.480279 13.8495 0.607407 13.748 0.776801C13.6464 0.946194 13.6259 1.14398 13.6908 1.32664C13.7558 1.5093 13.901 1.66189 14.0944 1.75082H14.0935Z" fill="black"/>
    <path d="M17.03 2.37518C17.1486 2.4279 17.2799 2.45526 17.4129 2.45502C17.6133 2.45353 17.8062 2.38784 17.9551 2.27034C18.1041 2.15285 18.1987 1.99168 18.2212 1.81726C18.2438 1.64283 18.1926 1.46722 18.0774 1.32356C17.9622 1.1799 17.791 1.07814 17.596 1.03749C17.401 0.996828 17.1958 1.02008 17.019 1.10287C16.8422 1.18565 16.7062 1.32223 16.6366 1.48683C16.5669 1.65143 16.5685 1.83267 16.641 1.99633C16.7135 2.15998 16.8518 2.29475 17.03 2.37518Z" fill="black"/>
    <path d="M20.6376 9.07766C20.7029 9.09344 20.7704 9.1015 20.8381 9.10161C21.0513 9.10428 21.2576 9.03561 21.4149 8.90961C21.5722 8.78361 21.6687 8.60978 21.6847 8.4236C21.7006 8.23742 21.6348 8.05293 21.5008 7.90778C21.3667 7.76262 21.1744 7.66775 20.9632 7.64253C20.7519 7.6173 20.5377 7.66362 20.3641 7.77203C20.1906 7.88045 20.0708 8.04278 20.0292 8.2259C19.9877 8.40903 20.0275 8.59913 20.1406 8.75742C20.2536 8.91571 20.4314 9.03024 20.6376 9.07766Z" fill="black"/>
    <path d="M20.7454 11.6885C20.8539 11.6885 20.9613 11.6696 21.0615 11.633C21.1616 11.5964 21.2525 11.5428 21.3288 11.4752C21.4051 11.4076 21.4654 11.3275 21.506 11.2394C21.5467 11.1513 21.5671 11.057 21.5659 10.9619V10.9324C21.5659 10.7408 21.4789 10.557 21.3242 10.4215C21.1695 10.286 20.9596 10.2098 20.7408 10.2098C20.522 10.2098 20.3121 10.286 20.1574 10.4215C20.0027 10.557 19.9158 10.7408 19.9158 10.9324V10.9643C19.9181 11.1564 20.0063 11.34 20.1614 11.4758C20.3164 11.6116 20.5261 11.6888 20.7454 11.6909V11.6885Z" fill="black"/>
    <path d="M20.3747 6.4461C20.4934 6.49882 20.6246 6.52618 20.7576 6.52594C20.9581 6.52445 21.1509 6.45876 21.2999 6.34127C21.4488 6.22379 21.5434 6.06262 21.566 5.88821C21.5885 5.71379 21.5373 5.53818 21.4221 5.39453C21.307 5.25088 21.1357 5.14913 20.9407 5.10847C20.7457 5.06781 20.5405 5.09107 20.3637 5.17385C20.187 5.25663 20.0509 5.3932 19.9813 5.5578C19.9117 5.72239 19.9132 5.90362 19.9857 6.06727C20.0582 6.23092 20.1966 6.36568 20.3747 6.4461Z" fill="black"/>
    <path d="M19.3732 4.19317C19.4661 4.22515 19.5651 4.2414 19.6649 4.24108C19.8725 4.24215 20.0731 4.17515 20.2272 4.05327C20.3812 3.93139 20.4777 3.76343 20.4975 3.58243C20.5173 3.40143 20.4591 3.22049 20.3343 3.07518C20.2095 2.92987 20.0271 2.83071 19.8231 2.7972C19.619 2.76369 19.408 2.79826 19.2316 2.8941C19.0551 2.98994 18.926 3.14013 18.8696 3.31512C18.8132 3.49011 18.8336 3.67725 18.9268 3.83974C19.02 4.00223 19.1792 4.1283 19.3732 4.19317Z" fill="black"/>
    <path d="M27.9938 18.5291C28.0591 18.5449 28.1266 18.5529 28.1943 18.553C28.4075 18.5557 28.6138 18.487 28.7711 18.361C28.9284 18.235 29.0249 18.0612 29.0409 17.875C29.0568 17.6889 28.991 17.5044 28.857 17.3592C28.7229 17.2141 28.5306 17.1192 28.3194 17.094C28.1081 17.0688 27.8939 17.1151 27.7203 17.2235C27.5468 17.3319 27.427 17.4942 27.3854 17.6774C27.3439 17.8605 27.3837 18.0506 27.4968 18.2088C27.6098 18.3671 27.7876 18.4817 27.9938 18.5291Z" fill="black"/>
    <path d="M27.9938 15.9295C28.0591 15.9453 28.1266 15.9533 28.1943 15.9534C28.4075 15.9561 28.6138 15.8874 28.7711 15.7614C28.9284 15.6354 29.0249 15.4616 29.0409 15.2754C29.0568 15.0892 28.991 14.9047 28.857 14.7596C28.7229 14.6144 28.5306 14.5196 28.3194 14.4943C28.1081 14.4691 27.8939 14.5154 27.7203 14.6238C27.5468 14.7323 27.427 14.8946 27.3854 15.0777C27.3439 15.2608 27.3837 15.4509 27.4968 15.6092C27.6098 15.7675 27.7876 15.8821 27.9938 15.9295Z" fill="black"/>
    <path d="M28.1987 21.1398C28.3073 21.1398 28.4147 21.1209 28.5149 21.0843C28.615 21.0477 28.7059 20.9941 28.7822 20.9265C28.8585 20.8589 28.9187 20.7788 28.9594 20.6907C29.0001 20.6026 29.0204 20.5083 29.0192 20.4132V20.3813C29.0192 20.1897 28.9323 20.0059 28.7776 19.8704C28.6229 19.7349 28.413 19.6588 28.1942 19.6588C27.9754 19.6588 27.7655 19.7349 27.6108 19.8704C27.4561 20.0059 27.3691 20.1897 27.3691 20.3813V20.4132C27.3715 20.6053 27.4597 20.7889 27.6147 20.9247C27.7698 21.0605 27.9795 21.1377 28.1987 21.1398Z" fill="black"/>
    <path d="M29.0822 13.7163C29.2009 13.769 29.3321 13.7964 29.4651 13.7961C29.6656 13.7947 29.8585 13.729 30.0074 13.6115C30.1563 13.494 30.251 13.3328 30.2735 13.1584C30.296 12.984 30.2449 12.8083 30.1297 12.6647C30.0145 12.521 29.8432 12.4193 29.6482 12.3786C29.4532 12.338 29.248 12.3612 29.0712 12.444C28.8945 12.5268 28.7585 12.6634 28.6888 12.828C28.6192 12.9926 28.6207 13.1738 28.6932 13.3375C28.7657 13.5011 28.9041 13.6359 29.0822 13.7163Z" fill="black"/>
    <path d="M34.2841 12.3567C34.4028 12.4095 34.534 12.4368 34.667 12.4366C34.8675 12.4351 35.0604 12.3694 35.2093 12.2519C35.3582 12.1344 35.4529 11.9732 35.4754 11.7988C35.4979 11.6243 35.4468 11.4487 35.3316 11.305C35.2164 11.1614 35.0451 11.0596 34.8501 11.0189C34.6551 10.9783 34.4499 11.0015 34.2732 11.0843C34.0964 11.1671 33.9604 11.3037 33.8907 11.4683C33.8211 11.6329 33.8226 11.8142 33.8951 11.9779C33.9676 12.1415 34.106 12.2763 34.2841 12.3567Z" fill="black"/>
    <path d="M30.9903 11.4354C30.8896 11.605 30.8695 11.8025 30.9344 11.9849C30.9993 12.1674 31.1439 12.32 31.3367 12.4095C31.4554 12.4622 31.5866 12.4896 31.7196 12.4893C31.8648 12.4888 32.0073 12.4544 32.1324 12.3899C32.2575 12.3254 32.3608 12.2329 32.4318 12.122C32.5028 12.0111 32.5389 11.8856 32.5364 11.7585C32.5339 11.6314 32.4929 11.5071 32.4177 11.3983C32.3424 11.2896 32.2356 11.2003 32.108 11.1395C31.9805 11.0788 31.8368 11.0487 31.6916 11.0525C31.5465 11.0563 31.4051 11.0937 31.2819 11.161C31.1587 11.2283 31.058 11.323 30.9903 11.4354Z" fill="black"/>
    <path d="M36.5581 13.5478C36.6767 13.6006 36.8079 13.6279 36.941 13.6277C37.1414 13.6262 37.3343 13.5605 37.4832 13.443C37.6321 13.3255 37.7268 13.1644 37.7493 12.99C37.7718 12.8155 37.7207 12.6399 37.6055 12.4963C37.4903 12.3526 37.3191 12.2509 37.1241 12.2102C36.9291 12.1696 36.7238 12.1928 36.5471 12.2756C36.3703 12.3584 36.2343 12.4949 36.1646 12.6595C36.095 12.8241 36.0966 13.0054 36.169 13.169C36.2415 13.3327 36.3799 13.4674 36.5581 13.5478Z" fill="black"/>
    <path d="M38.1024 18.5291C38.1677 18.5449 38.2352 18.5529 38.303 18.553C38.5161 18.5557 38.7224 18.487 38.8798 18.361C39.0371 18.235 39.1336 18.0612 39.1495 17.875C39.1655 17.6889 39.0997 17.5044 38.9656 17.3592C38.8315 17.2141 38.6393 17.1192 38.428 17.094C38.2168 17.0688 38.0025 17.1151 37.829 17.2235C37.6554 17.3319 37.5356 17.4942 37.4941 17.6774C37.4525 17.8605 37.4923 18.0506 37.6054 18.2088C37.7184 18.3671 37.8962 18.4817 38.1024 18.5291Z" fill="black"/>
    <path d="M37.9518 15.9622C38.0171 15.978 38.0846 15.9861 38.1523 15.9862C38.3655 15.9889 38.5718 15.9202 38.7291 15.7942C38.8864 15.6682 38.9829 15.4944 38.9989 15.3082C39.0148 15.122 38.9491 14.9375 38.815 14.7924C38.6809 14.6472 38.4886 14.5523 38.2774 14.5271C38.0662 14.5019 37.8519 14.5482 37.6783 14.6566C37.5048 14.765 37.385 14.9274 37.3434 15.1105C37.3019 15.2936 37.3417 15.4837 37.4548 15.642C37.5678 15.8003 37.7456 15.9148 37.9518 15.9622Z" fill="black"/>
    <path d="M38.178 21.1398C38.2865 21.1398 38.394 21.1209 38.4941 21.0843C38.5942 21.0477 38.6851 20.9941 38.7614 20.9265C38.8377 20.8589 38.898 20.7788 38.9387 20.6907C38.9794 20.6026 38.9997 20.5083 38.9985 20.4132V20.3813C38.9985 20.1897 38.9116 20.0059 38.7568 19.8704C38.6021 19.7349 38.3923 19.6588 38.1734 19.6588C37.9546 19.6588 37.7448 19.7349 37.59 19.8704C37.4353 20.0059 37.3484 20.1897 37.3484 20.3813V20.4132C37.3508 20.6053 37.4389 20.7889 37.594 20.9247C37.7491 21.0605 37.9587 21.1377 38.178 21.1398Z" fill="black"/>
    <path d="M38.5737 14.6201C38.3801 14.532 38.1545 14.5144 37.9462 14.5712C37.7378 14.628 37.5636 14.7546 37.4614 14.9235" fill="black"/>
</svg>
