<svg width="45" height="40" viewBox="0 0 45 35" fill="none" xmlns="http://www.w3.org/2000/svg">
<path d="M44.1632 26.1935V24.1961C44.164 23.9879 44.1116 23.7822 44.0097 23.594C43.9079 23.4058 43.7592 23.2401 43.5746 23.1088C42.1108 22.0748 40.5226 21.1836 38.8382 20.451C38.8121 20.4405 38.7903 20.4233 38.7755 20.4018C38.7607 20.3802 38.7538 20.3552 38.7555 20.3302V17.5193C38.9623 17.3998 39.132 17.2371 39.2492 17.0459C39.3664 16.8547 39.4275 16.6409 39.4268 16.4239V13.5083C39.4266 12.812 39.1106 12.1443 38.5484 11.652C37.9862 11.1596 37.2237 10.8829 36.4287 10.8827H35.7113C34.9162 10.8829 34.1538 11.1596 33.5916 11.652C33.0294 12.1443 32.7134 12.812 32.7132 13.5083V16.4215C32.7136 16.6383 32.7751 16.8518 32.8922 17.0428C33.0093 17.2339 33.1784 17.3967 33.3845 17.5169V20.3277C33.385 20.3526 33.3776 20.3772 33.3629 20.3985C33.3483 20.4199 33.3271 20.4372 33.3018 20.4486C32.8511 20.6418 30.6255 21.6244 28.5654 23.1064C28.3824 23.2388 28.2348 23.4049 28.1331 23.5928C28.0314 23.7806 27.978 23.9858 27.9768 24.1937V26.1911" fill="#1E7BBF"/>
<path d="M35.6963 6.67611L32.6485 6.69221C32.4265 6.69328 32.2141 6.77153 32.058 6.90973C31.902 7.04794 31.815 7.23479 31.8162 7.42917C31.8174 7.62355 31.9067 7.80955 32.0646 7.94625C32.2224 8.08294 32.4357 8.15914 32.6577 8.15807H32.6669L36.5571 8.1178C36.7783 8.11359 36.9888 8.03366 37.1435 7.89516C37.2983 7.75665 37.3849 7.57058 37.3848 7.37682L37.3388 3.96991C37.3364 3.77553 37.2459 3.58995 37.0872 3.45401C36.9285 3.31807 36.7147 3.2429 36.4927 3.24504C36.2708 3.24718 36.0589 3.32644 35.9036 3.4654C35.7484 3.60437 35.6626 3.79164 35.665 3.98602L35.6834 6.67611" fill="black"/>
<path d="M8.7278 31.7992L8.70941 30.1481C12.324 33.2181 17.1658 34.9292 22.2011 34.9161H22.431C24.9847 34.8986 27.5089 34.4365 29.8567 33.5567C32.2045 32.6769 34.329 31.3969 36.1067 29.7913C36.1834 29.7231 36.244 29.6423 36.285 29.5536C36.3261 29.4649 36.3467 29.3699 36.3459 29.2742C36.345 29.1785 36.3227 29.0838 36.28 28.9957C36.2374 28.9075 36.1754 28.8276 36.0975 28.7604C36.0196 28.6932 35.9273 28.6402 35.826 28.6042C35.7247 28.5683 35.6163 28.5502 35.507 28.5509C35.3977 28.5517 35.2896 28.5713 35.1889 28.6086C35.0883 28.6459 34.997 28.7002 34.9203 28.7684C31.6434 31.707 27.1726 33.3917 22.483 33.4551C17.7934 33.5184 13.2655 31.9554 9.8866 29.1067L11.7627 29.0906C11.8727 29.0901 11.9814 29.0706 12.0827 29.0333C12.184 28.996 12.2759 28.9415 12.3532 28.8731C12.4305 28.8047 12.4916 28.7236 12.5331 28.6344C12.5746 28.5453 12.5957 28.4499 12.5951 28.3537C12.5945 28.2574 12.5722 28.1622 12.5296 28.0735C12.487 27.9848 12.4248 27.9043 12.3467 27.8366C12.2685 27.7689 12.1759 27.7154 12.0742 27.679C11.9724 27.6427 11.8635 27.6242 11.7535 27.6248H11.7444L7.85411 27.665C7.63277 27.6664 7.4211 27.7446 7.26551 27.8825C7.18885 27.9504 7.12827 28.0309 7.08723 28.1193C7.0462 28.2078 7.02552 28.3025 7.02639 28.398L7.07238 31.8048C7.07504 31.9978 7.16436 32.182 7.32099 32.3177C7.47763 32.4533 7.68898 32.5295 7.90929 32.5297H7.91848C8.0266 32.5289 8.13345 32.5092 8.23283 32.472C8.33222 32.4347 8.42216 32.3805 8.49745 32.3126C8.57274 32.2446 8.63187 32.1642 8.67141 32.0761C8.71095 31.988 8.73012 31.8939 8.7278 31.7992Z" fill="black"/>
<path d="M7.04477 17.5193C7.04552 17.3998 7.01228 17.282 6.94806 17.1765C6.88383 17.0711 6.79065 16.9813 6.6769 16.9152C6.58681 16.8616 6.51295 16.7896 6.46168 16.7054C6.41042 16.6212 6.38328 16.5274 6.3826 16.432V13.5164C6.38224 13.2678 6.43789 13.0215 6.54638 12.7917C6.65486 12.562 6.81404 12.3532 7.01481 12.1774C7.21557 12.0016 7.45397 11.8621 7.71635 11.7671C7.97873 11.6721 8.25993 11.6234 8.54385 11.6237H9.2612C9.54512 11.6234 9.82633 11.6721 10.0887 11.7671C10.3511 11.8621 10.5895 12.0016 10.7902 12.1774C10.991 12.3532 11.1502 12.562 11.2587 12.7917C11.3672 13.0215 11.4228 13.2678 11.4224 13.5164V16.432C11.4228 16.5276 11.3961 16.6217 11.3448 16.7061C11.2934 16.7904 11.219 16.8623 11.1282 16.9152C11.0152 16.982 10.9226 17.072 10.8585 17.1772C10.7944 17.2825 10.7607 17.4 10.7603 17.5193V20.3302C10.7608 20.4913 10.8128 20.6491 10.9103 20.7857C11.0078 20.9223 11.147 21.0323 11.3121 21.1034C12.9354 21.8145 14.4676 22.675 15.8829 23.6702C15.9707 23.7343 16.0417 23.8143 16.0909 23.9046C16.1401 23.995 16.1664 24.0936 16.168 24.1937V26.1911C16.168 26.2874 16.1896 26.3827 16.2317 26.4716C16.2738 26.5605 16.3354 26.6413 16.4131 26.7094C16.4908 26.7774 16.5831 26.8314 16.6846 26.8682C16.7862 26.9051 16.895 26.924 17.0049 26.924C17.1148 26.924 17.2236 26.9051 17.3252 26.8682C17.4267 26.8314 17.519 26.7774 17.5967 26.7094C17.6744 26.6413 17.736 26.5605 17.7781 26.4716C17.8202 26.3827 17.8418 26.2874 17.8418 26.1911V24.1937C17.844 23.8775 17.7649 23.565 17.6105 23.2792C17.4561 22.9934 17.2303 22.7416 16.9497 22.5426C15.1839 21.2701 13.2894 20.3519 12.4341 19.9653V17.8632C12.8642 17.4811 13.1054 16.9661 13.1055 16.4296V13.514C13.1047 12.6256 12.7014 11.7738 11.9841 11.1456C11.2668 10.5174 10.2941 10.1642 9.27959 10.1635H8.56224C7.54778 10.1642 6.57508 10.5174 5.85775 11.1456C5.14042 11.7738 4.73711 12.6256 4.73638 13.514V16.4296C4.73823 16.9658 4.97913 17.4802 5.40774 17.8632V19.9653C4.56164 20.3519 2.6671 21.2701 0.892113 22.5426C0.611966 22.7425 0.386444 22.9947 0.232081 23.2808C0.0777182 23.5669 -0.00157196 23.8797 2.36116e-05 24.1961V26.1935C2.361e-05 26.2898 0.0216709 26.3851 0.0637295 26.474C0.105788 26.5629 0.167434 26.6437 0.245149 26.7118C0.322863 26.7798 0.415123 26.8338 0.516661 26.8707C0.6182 26.9075 0.727028 26.9265 0.836932 26.9265C0.946837 26.9265 1.05567 26.9075 1.1572 26.8707C1.25874 26.8338 1.351 26.7798 1.42872 26.7118C1.50643 26.6437 1.56808 26.5629 1.61014 26.474C1.65219 26.3851 1.67384 26.2898 1.67384 26.1935V24.1961C1.6724 24.0956 1.69735 23.9961 1.74678 23.9053C1.79622 23.8145 1.8688 23.7349 1.95894 23.6726C3.37412 22.6766 4.90636 21.8153 6.52975 21.1034C6.69442 21.0318 6.83318 20.9217 6.93061 20.7852C7.02803 20.6486 7.08029 20.4911 7.08156 20.3302V17.5193H7.04477Z" fill="black"/>
<path d="M44.1631 26.9265C44.3848 26.9258 44.5973 26.8484 44.7541 26.7111C44.9109 26.5738 44.9993 26.3877 45 26.1935V24.1961C45.0022 23.88 44.9231 23.5674 44.7687 23.2816C44.6143 22.9958 44.3885 22.7441 44.1079 22.545C42.3421 21.2725 40.4476 20.3543 39.5923 19.9677V17.8656C40.0224 17.4835 40.2636 16.9685 40.2637 16.432V13.5164C40.2629 12.628 39.8596 11.7761 39.1423 11.1479C38.4249 10.5197 37.4523 10.1665 36.4378 10.1659H35.7204C34.706 10.1665 33.7333 10.5197 33.0159 11.1479C32.2986 11.7761 31.8953 12.628 31.8946 13.5164V16.432C31.8964 16.9682 32.1373 17.4826 32.5659 17.8656V19.9653C31.7198 20.3519 29.8253 21.2701 28.0503 22.5426C27.7705 22.7422 27.5452 22.9941 27.3909 23.2797C27.2365 23.5654 27.157 23.8777 27.1582 24.1937V26.1911C27.1582 26.3855 27.2464 26.5719 27.4033 26.7094C27.5603 26.8468 27.7732 26.9241 27.9951 26.9241C28.2171 26.9241 28.43 26.8468 28.5869 26.7094C28.7439 26.5719 28.832 26.3855 28.832 26.1911V24.1937C28.8306 24.0932 28.8555 23.9937 28.905 23.9029C28.9544 23.8121 29.027 23.7325 29.1171 23.6702C30.5323 22.6742 32.0646 21.8129 33.6879 21.1009C33.8526 21.0294 33.9914 20.9192 34.0888 20.7827C34.1862 20.6462 34.2385 20.4887 34.2398 20.3277V17.5169C34.2405 17.3974 34.2073 17.2796 34.143 17.1741C34.0788 17.0686 33.9856 16.9789 33.8719 16.9128C33.7818 16.8592 33.7079 16.7872 33.6567 16.703C33.6054 16.6188 33.5783 16.525 33.5776 16.4296V13.514C33.5772 13.2653 33.6329 13.0191 33.7414 12.7893C33.8498 12.5595 34.009 12.3507 34.2098 12.1749C34.4106 11.9991 34.649 11.8597 34.9113 11.7647C35.1737 11.6697 35.4549 11.621 35.7388 11.6213H36.4562C36.7401 11.621 37.0213 11.6697 37.2837 11.7647C37.5461 11.8597 37.7845 11.9991 37.9852 12.1749C38.186 12.3507 38.3452 12.5595 38.4537 12.7893C38.5621 13.0191 38.6178 13.2653 38.6174 13.514V16.4296C38.6178 16.5251 38.5911 16.6193 38.5397 16.7036C38.4884 16.788 38.414 16.8598 38.3231 16.9128C38.2102 16.9796 38.1176 17.0695 38.0535 17.1748C37.9894 17.2801 37.9557 17.3975 37.9553 17.5169V20.3277C37.9558 20.4889 38.0077 20.6466 38.1053 20.7833C38.2028 20.9199 38.3419 21.0299 38.5071 21.1009C40.1305 21.8129 41.6627 22.6742 43.0779 23.6702C43.1657 23.7343 43.2366 23.8143 43.2858 23.9046C43.3351 23.995 43.3614 24.0936 43.363 24.1937V26.1911C43.3565 26.2862 43.3725 26.3815 43.4099 26.471C43.4473 26.5604 43.5054 26.6422 43.5804 26.7112C43.6555 26.7802 43.746 26.8349 43.8462 26.8719C43.9464 26.909 44.0543 26.9275 44.1631 26.9265Z" fill="black"/>
<path d="M28.7483 3.47209C28.8862 3.55565 29.0497 3.60058 29.2174 3.60095C29.3526 3.60036 29.4857 3.57156 29.6056 3.51694C29.7256 3.46232 29.8289 3.38344 29.9071 3.28685C30.0009 3.16815 30.0524 3.02776 30.055 2.88343C30.0577 2.73911 30.0114 2.59735 29.922 2.47607C29.8326 2.35479 29.7042 2.25944 29.553 2.20209C29.4017 2.14475 29.2344 2.12797 29.0723 2.15389C28.9101 2.17981 28.7604 2.24726 28.642 2.34771C28.5237 2.44816 28.442 2.57709 28.4073 2.7182C28.3726 2.85931 28.3865 3.00625 28.4472 3.14045C28.5079 3.27464 28.6127 3.39006 28.7483 3.47209Z" fill="black"/>
<path d="M32.0187 4.82362C32.2229 4.82572 32.4203 4.75946 32.5705 4.63837C32.7351 4.5095 32.8351 4.32906 32.8488 4.13611C32.8626 3.94317 32.7891 3.75323 32.6441 3.60742C32.5711 3.53603 32.4826 3.47793 32.3839 3.43646C32.2852 3.39499 32.1782 3.37095 32.0689 3.36571C31.9595 3.36048 31.8501 3.37415 31.7468 3.40595C31.6436 3.43775 31.5485 3.48705 31.4669 3.55104C31.3854 3.61503 31.3191 3.69246 31.2717 3.7789C31.2244 3.86534 31.1969 3.95911 31.1909 4.05484C31.185 4.15057 31.2006 4.2464 31.2369 4.33685C31.2732 4.4273 31.3295 4.5106 31.4026 4.58199C31.4792 4.65895 31.5739 4.72041 31.6803 4.76213C31.7867 4.80385 31.9022 4.82483 32.0187 4.82362Z" fill="black"/>
<path d="M34.4375 6.31846C34.5718 6.31945 34.7044 6.29181 34.8237 6.23792C35.0069 6.15601 35.1494 6.01817 35.2243 5.85047C35.2992 5.68276 35.3013 5.49684 35.2302 5.32786C35.1591 5.15889 35.0198 5.01859 34.8385 4.93352C34.6573 4.84845 34.4468 4.8245 34.2467 4.86621C34.0467 4.90792 33.8711 5.01239 33.753 5.15986C33.635 5.30732 33.5828 5.48756 33.6063 5.66645C33.6298 5.84534 33.7274 6.01049 33.8806 6.13064C34.0337 6.25079 34.2319 6.31761 34.4375 6.31846Z" fill="black"/>
<path d="M11.7222 5.15305C11.9158 5.1511 12.1025 5.08978 12.2498 4.97975C12.3972 4.86971 12.4958 4.71794 12.5285 4.55082C12.5613 4.38371 12.5261 4.21182 12.4291 4.06507C12.3321 3.91832 12.1794 3.80599 11.9977 3.74762C11.8159 3.68924 11.6165 3.68853 11.4342 3.74559C11.2519 3.80265 11.0982 3.91387 10.9998 4.05992C10.9014 4.20597 10.8646 4.37759 10.8958 4.54494C10.927 4.71229 11.0242 4.86477 11.1704 4.97586C11.323 5.09265 11.5196 5.15578 11.7222 5.15305Z" fill="black"/>
<path d="M9.06247 6.69778C9.18216 6.75096 9.31453 6.77856 9.44874 6.77832C9.65094 6.77682 9.84552 6.71055 9.99575 6.59202C10.146 6.4735 10.2415 6.31091 10.2642 6.13495C10.2869 5.95899 10.2353 5.78184 10.1191 5.63692C10.0029 5.492 9.83015 5.38934 9.63344 5.34833C9.43673 5.30731 9.22969 5.33077 9.05138 5.41428C8.87307 5.49779 8.73584 5.63558 8.66558 5.80162C8.59533 5.96767 8.59691 6.1505 8.67002 6.3156C8.74314 6.48069 8.88274 6.61664 9.06247 6.69778Z" fill="black"/>
<path d="M20.1906 2.26078C20.2246 2.26211 20.2586 2.2594 20.2918 2.25273C20.4556 2.23524 20.6097 2.17561 20.7348 2.08137C20.8599 1.98714 20.9503 1.86253 20.9945 1.72331C21.0387 1.58409 21.0348 1.43651 20.9832 1.29925C20.9316 1.16198 20.8347 1.0412 20.7048 0.95217C20.5748 0.863141 20.4176 0.80987 20.2531 0.799093C20.0885 0.788316 19.924 0.820519 19.7804 0.891627C19.6367 0.962735 19.5204 1.06955 19.4461 1.19857C19.3718 1.32759 19.3428 1.47301 19.3629 1.61644C19.3885 1.79337 19.4865 1.95617 19.6387 2.07466C19.7909 2.19314 19.987 2.25927 20.1906 2.26078Z" fill="black"/>
<path d="M23.06 2.25195C23.0968 2.25195 23.1244 2.26 23.1612 2.26C23.3842 2.26615 23.6013 2.19594 23.7662 2.06428C23.9311 1.93262 24.031 1.74986 24.0446 1.55479C24.0582 1.35971 23.9845 1.16766 23.8391 1.01939C23.6937 0.87112 23.4881 0.77829 23.2658 0.760595C23.0436 0.742901 22.8222 0.801735 22.6486 0.924616C22.4751 1.0475 22.3631 1.22475 22.3363 1.41878C22.3095 1.61281 22.3701 1.80834 22.5052 1.96389C22.6403 2.11944 22.8393 2.22277 23.06 2.25195Z" fill="black"/>
<path d="M25.9065 2.69092C26.0002 2.72318 26.1 2.73958 26.2008 2.73925C26.4102 2.74033 26.6125 2.67275 26.7679 2.5498C26.9233 2.42685 27.0206 2.25744 27.0406 2.07486C27.0606 1.89228 27.0019 1.70976 26.876 1.56319C26.7501 1.41661 26.5661 1.31659 26.3603 1.28279C26.1544 1.24898 25.9416 1.28385 25.7636 1.38053C25.5856 1.47721 25.4554 1.6287 25.3985 1.80522C25.3416 1.98174 25.3622 2.17051 25.4562 2.33441C25.5502 2.49831 25.7108 2.62548 25.9065 2.69092Z" fill="black"/>
<path d="M17.3121 2.88012C17.4129 2.88045 17.5127 2.86406 17.6064 2.8318C17.8138 2.76344 17.9816 2.62576 18.073 2.44904C18.1644 2.27233 18.1719 2.07104 18.0939 1.88948C18.0158 1.70791 17.8586 1.56094 17.6568 1.48089C17.455 1.40084 17.2252 1.39426 17.0179 1.46262C16.9154 1.49652 16.8216 1.54788 16.742 1.61375C16.6624 1.67961 16.5985 1.75866 16.554 1.84631C16.5095 1.93396 16.4853 2.02847 16.4829 2.12436C16.4804 2.22025 16.4997 2.31562 16.5396 2.40494C16.5965 2.54437 16.7013 2.66494 16.8397 2.75004C16.978 2.83514 17.1431 2.88059 17.3121 2.88012Z" fill="black"/>
<path d="M14.3958 3.82973C14.5821 3.83049 14.7633 3.77648 14.9104 3.67637C15.0575 3.57625 15.162 3.43581 15.2072 3.27752C15.2523 3.11924 15.2356 2.95226 15.1595 2.80332C15.0835 2.65438 14.9526 2.53209 14.7877 2.45602C14.6229 2.37995 14.4338 2.35451 14.2505 2.38376C14.0672 2.41301 13.9004 2.49526 13.7768 2.61736C13.6533 2.73945 13.58 2.89432 13.5689 3.05718C13.5577 3.22003 13.6093 3.38146 13.7153 3.51562C13.7894 3.61389 13.8906 3.6942 14.0096 3.74911C14.1285 3.80401 14.2614 3.83174 14.3958 3.82973Z" fill="black"/>
</svg>
