<svg width="35" height="35" viewBox="0 0 35 35" fill="none" xmlns="http://www.w3.org/2000/svg">
<g clip-path="url(#clip0)">
<path d="M31.4406 22.5679H7.11882L5.93213 8.92397H34.4067L31.4406 22.5679Z" fill="white"/>
<path d="M31.4405 23.1612H7.11873C6.81085 23.1612 6.55423 22.926 6.52775 22.6195L5.3414 8.97557C5.3268 8.80992 5.38247 8.64563 5.49483 8.52309C5.60718 8.40021 5.7657 8.33063 5.93203 8.33063H34.4066C34.5861 8.33063 34.7558 8.41175 34.8682 8.55127C34.9812 8.69146 35.0243 8.87442 34.9867 9.04991L32.0206 22.6942C31.9609 22.9664 31.7199 23.1612 31.4405 23.1612ZM7.66251 21.9745H30.9626L33.6703 9.51698H6.57901L7.66251 21.9745Z" fill="white"/>
<path d="M7.01538 21.3815L7.11891 22.5679H31.4407L31.6987 21.3815H7.01538Z" fill="white"/>
<path d="M31.4406 23.1612H7.11881C6.81094 23.1612 6.55432 22.926 6.52784 22.6195L6.42465 21.4331C6.41006 21.2675 6.46573 21.1032 6.57808 20.9807C6.69078 20.8578 6.8493 20.7882 7.01562 20.7882H31.6986C31.8781 20.7882 32.0479 20.8693 32.1602 21.0088C32.2733 21.149 32.316 21.3323 32.2783 21.5071L32.0207 22.6935C31.961 22.9664 31.72 23.1612 31.4406 23.1612ZM7.6626 21.9745H30.9627H7.6626Z" fill="white"/>
<path d="M5.93177 9.51697C5.63306 9.51697 5.3761 9.29294 5.3425 8.98914L4.80788 4.17787H0.593347C0.265445 4.17787 0 3.91276 0 3.58486C0 3.25696 0.265445 2.99152 0.593347 2.99152H5.33911C5.64121 2.99152 5.89511 3.2186 5.92872 3.51935L6.52207 8.85845C6.55805 9.18398 6.32315 9.47726 5.99763 9.51358C5.97556 9.51595 5.95316 9.51697 5.93177 9.51697Z" fill="white"/>
<path d="M7.71107 28.5C7.4127 28.5 7.15574 28.276 7.12214 27.9722L6.52879 22.6334C6.49281 22.3079 6.72737 22.0146 7.05289 21.9779C7.3808 21.944 7.67238 22.1775 7.70836 22.5024L8.30137 27.8411C8.33735 28.1667 8.10279 28.4599 7.77727 28.4966C7.7552 28.499 7.7328 28.5 7.71107 28.5Z" fill="white"/>
<path d="M10.6779 30.2797C10.6779 31.5903 9.61577 32.6528 8.30518 32.6528C6.99459 32.6528 5.93213 31.5903 5.93213 30.2797C5.93213 28.9691 6.99459 27.907 8.30518 27.907C9.61577 27.907 10.6779 28.9691 10.6779 30.2797Z" fill="white"/>
<path d="M8.30517 33.2458C6.66973 33.2458 5.33911 31.9151 5.33911 30.2797C5.33911 28.6443 6.66973 27.3136 8.30517 27.3136C9.94061 27.3136 11.2712 28.6443 11.2712 30.2797C11.2712 31.9151 9.94061 33.2458 8.30517 33.2458ZM8.30517 28.5C7.32384 28.5 6.52547 29.2984 6.52547 30.2797C6.52547 31.261 7.32384 32.0594 8.30517 32.0594C9.2865 32.0594 10.0849 31.261 10.0849 30.2797C10.0849 29.2984 9.2865 28.5 8.30517 28.5Z" fill="white"/>
<path d="M30.8475 30.2797C30.8475 31.5903 29.7851 32.6528 28.4745 32.6528C27.1639 32.6528 26.1018 31.5903 26.1018 30.2797C26.1018 28.9691 27.1639 27.907 28.4745 27.907C29.7851 27.907 30.8475 28.9691 30.8475 30.2797Z" fill="white"/>
<path d="M28.4746 33.2458C26.8392 33.2458 25.5085 31.9151 25.5085 30.2797C25.5085 28.6443 26.8392 27.3136 28.4746 27.3136C30.11 27.3136 31.4407 28.6443 31.4407 30.2797C31.4407 31.9151 30.11 33.2458 28.4746 33.2458ZM28.4746 28.5C27.4933 28.5 26.6949 29.2984 26.6949 30.2797C26.6949 31.261 27.4933 32.0594 28.4746 32.0594C29.4559 32.0594 30.2543 31.261 30.2543 30.2797C30.2543 29.2984 29.4559 28.5 28.4746 28.5Z" fill="white"/>
<path d="M26.1019 30.873H10.678C10.3501 30.873 10.085 30.6076 10.085 30.2797C10.085 29.9518 10.3501 29.6863 10.678 29.6863H26.1019C26.4298 29.6863 26.695 29.9518 26.695 30.2797C26.695 30.6076 26.4298 30.873 26.1019 30.873Z" fill="white"/>
<path d="M31.4406 8.92396C31.4406 12.5278 28.519 15.4491 24.9151 15.4491C21.3112 15.4491 18.3896 12.5278 18.3896 8.92396C18.3896 5.31975 21.3112 2.3985 24.9151 2.3985C28.519 2.3985 31.4406 5.31975 31.4406 8.92396Z" fill="#1E7BBF"/>
<path d="M24.9151 16.0424C20.9898 16.0424 17.7966 12.8493 17.7966 8.92397C17.7966 4.9983 20.9898 1.80516 24.9151 1.80516C28.8408 1.80516 32.0339 4.9983 32.0339 8.92397C32.0339 12.8493 28.8408 16.0424 24.9151 16.0424ZM24.9151 2.99152C21.6442 2.99152 18.983 5.65309 18.983 8.92397C18.983 12.1945 21.6442 14.8561 24.9151 14.8561C28.186 14.8561 30.8476 12.1945 30.8476 8.92397C30.8476 5.65309 28.186 2.99152 24.9151 2.99152Z" fill="white"/>
<path d="M24.915 13.0764C24.5871 13.0764 24.322 12.8109 24.322 12.483V5.36456C24.322 5.03665 24.5871 4.77121 24.915 4.77121C25.2429 4.77121 25.5084 5.03665 25.5084 5.36456V12.483C25.5084 12.8109 25.2429 13.0764 24.915 13.0764Z" fill="white"/>
<path d="M28.4745 9.51699H21.356C21.0281 9.51699 20.7627 9.25188 20.7627 8.92398C20.7627 8.59607 21.0281 8.33063 21.356 8.33063H28.4745C28.8024 8.33063 29.0678 8.59607 29.0678 8.92398C29.0678 9.25188 28.8024 9.51699 28.4745 9.51699Z" fill="white"/>
<path d="M9.49154 14.2627C9.16364 14.2627 8.89819 13.9976 8.89819 13.6697V11.2967C8.89819 10.9688 9.16364 10.7033 9.49154 10.7033C9.81944 10.7033 10.0849 10.9688 10.0849 11.2967V13.6697C10.0849 13.9976 9.81944 14.2627 9.49154 14.2627Z" fill="white"/>
<path d="M10.678 14.0764H8.30526C7.97736 14.0764 7.71191 13.8109 7.71191 13.483C7.71191 13.1551 7.97736 12.89 8.30526 12.89H10.678C11.0059 12.89 11.2713 13.1551 11.2713 13.483C11.2713 13.8109 11.0059 14.0764 10.678 14.0764Z" fill="white"/>
<path d="M30.2543 20.1948H26.1019C25.774 20.1948 25.5085 19.9297 25.5085 19.6018C25.5085 19.2739 25.774 19.0085 26.1019 19.0085H30.2543C30.5822 19.0085 30.8477 19.2739 30.8477 19.6018C30.8477 19.9297 30.5822 20.1948 30.2543 20.1948Z" fill="white"/>
</g>
<defs>
<clipPath id="clip0">
<rect width="35" height="35" fill="white"/>
</clipPath>
</defs>
</svg>
