<svg width="76" height="70" viewBox="0 0 76 70" fill="none" xmlns="http://www.w3.org/2000/svg">
<g clip-path="url(#clip0)">
<path d="M71.3992 66.1851H39.9188C39.586 66.1859 39.2562 66.121 38.9485 65.9939C38.6408 65.8669 38.3613 65.6804 38.1259 65.445C37.8905 65.2096 37.7039 64.93 37.5769 64.6224C37.4499 64.3147 37.3849 63.9849 37.3857 63.652V33.3466H73.917V63.652C73.9182 63.9837 73.854 64.3124 73.7281 64.6193C73.6022 64.9262 73.417 65.2052 73.1832 65.4405C72.9494 65.6757 72.6714 65.8626 72.3653 65.9904C72.0592 66.1181 71.7309 66.1843 71.3992 66.1851Z" fill="#3C92CA"/>
<path d="M36.2566 16.6329H45.687V19.7458C45.687 20.1141 45.8333 20.4673 46.0937 20.7277C46.3541 20.9881 46.7073 21.1344 47.0756 21.1344C47.4439 21.1344 47.7971 20.9881 48.0575 20.7277C48.3179 20.4673 48.4642 20.1141 48.4642 19.7458V15.2488C48.463 14.8809 48.3163 14.5284 48.0562 14.2683C47.796 14.0081 47.4435 13.8614 47.0756 13.8602H1.38862C1.0207 13.8614 0.668204 14.0081 0.40805 14.2683C0.147895 14.5284 0.00120694 14.8809 0 15.2488V60.4018C0.00724729 62.9452 1.02081 65.3823 2.81926 67.1807C4.61771 68.9792 7.05485 69.9928 9.59824 70H30.7174C31.0857 70 31.4389 69.8537 31.6993 69.5933C31.9597 69.3329 32.106 68.9797 32.106 68.6114C32.106 68.2431 31.9597 67.8899 31.6993 67.6295C31.4389 67.3691 31.0857 67.2228 30.7174 67.2228H9.59824C7.78981 67.2208 6.05604 66.5015 4.77729 65.2227C3.49854 63.944 2.77925 62.2102 2.77723 60.4018V16.6329H36.2566Z" fill="black"/>
<path d="M45.8473 31.9733H37.3859C37.018 31.9745 36.6655 32.1212 36.4054 32.3813C36.1452 32.6415 35.9985 32.994 35.9973 33.3619V61.0884C35.9985 62.8081 36.6822 64.4569 37.8982 65.6729C39.1141 66.8888 40.763 67.5725 42.4826 67.5737H68.8358C70.5554 67.5725 72.2043 66.8888 73.4202 65.6729C74.6362 64.4569 75.3199 62.8081 75.3211 61.0884V33.3466C75.3199 32.9787 75.1732 32.6262 74.913 32.3661C74.6529 32.1059 74.3004 31.9592 73.9325 31.958H65.4634L45.8473 31.9733ZM65.4787 34.7352H72.5438V61.0884C72.5426 62.0715 72.1516 63.0139 71.4564 63.7091C70.7613 64.4042 69.8189 64.7953 68.8358 64.7965H42.475C41.4919 64.7953 40.5495 64.4042 39.8543 63.7091C39.1592 63.0139 38.7681 62.0715 38.7669 61.0884V34.7352H65.4711H65.4787ZM62.6862 31.9733H48.6169H62.6862Z" fill="black"/>
<path d="M13.2514 16.5978C13.3607 16.6279 13.4737 16.6433 13.5871 16.6436C13.9439 16.6487 14.2892 16.5174 14.5525 16.2766C14.8158 16.0358 14.9773 15.7035 15.004 15.3477C15.0307 14.9919 14.9206 14.6393 14.6962 14.3619C14.4718 14.0844 14.15 13.9031 13.7964 13.8549C13.4428 13.8067 13.0842 13.8952 12.7937 14.1024C12.5032 14.3096 12.3027 14.6199 12.2332 14.9699C12.1636 15.3199 12.2303 15.6832 12.4195 15.9857C12.6087 16.2882 12.9063 16.5072 13.2514 16.5978Z" fill="black"/>
<path d="M13.5946 21.5876C13.7763 21.5876 13.9561 21.5516 14.1237 21.4817C14.2914 21.4117 14.4435 21.3092 14.5712 21.18C14.6989 21.0509 14.7998 20.8977 14.8679 20.7293C14.936 20.5609 14.97 20.3807 14.968 20.199V20.1426C14.9741 19.9574 14.943 19.773 14.8764 19.6002C14.8098 19.4273 14.7091 19.2697 14.5804 19.1365C14.4516 19.0034 14.2974 18.8975 14.1268 18.8252C13.9563 18.7529 13.773 18.7157 13.5878 18.7157C13.4026 18.7157 13.2192 18.7529 13.0487 18.8252C12.8782 18.8975 12.7239 19.0034 12.5952 19.1365C12.4664 19.2697 12.3657 19.4273 12.2991 19.6002C12.2325 19.773 12.2014 19.9574 12.2076 20.1426V20.2036C12.2115 20.5707 12.3591 20.9216 12.6187 21.1811C12.8782 21.4407 13.2291 21.5882 13.5962 21.5922L13.5946 21.5876Z" fill="black"/>
<path d="M13.1081 11.5881C13.3067 11.6888 13.5263 11.7411 13.749 11.7407C14.0845 11.7378 14.4073 11.6123 14.6566 11.3877C14.9059 11.1631 15.0643 10.8551 15.102 10.5217C15.1397 10.1884 15.0541 9.8527 14.8613 9.57813C14.6685 9.30356 14.3818 9.10907 14.0555 9.03136C13.7291 8.95365 13.3856 8.9981 13.0897 9.15632C12.7938 9.31455 12.5661 9.57559 12.4496 9.89019C12.333 10.2048 12.3356 10.5512 12.4569 10.864C12.5783 11.1768 12.8099 11.4344 13.1081 11.5881Z" fill="black"/>
<path d="M14.736 7.18875C14.9346 7.28951 15.1543 7.3418 15.3769 7.34135C15.7124 7.3385 16.0353 7.21295 16.2845 6.98838C16.5338 6.76382 16.6922 6.45578 16.73 6.1224C16.7677 5.78902 16.682 5.45337 16.4892 5.1788C16.2964 4.90423 16.0098 4.70974 15.6834 4.63203C15.357 4.55432 15.0135 4.59877 14.7176 4.75699C14.4218 4.91521 14.1941 5.17626 14.0775 5.49086C13.9609 5.80546 13.9636 6.15185 14.0849 6.46465C14.2062 6.77745 14.4378 7.03502 14.736 7.18875Z" fill="black"/>
<path d="M18.2597 3.96746C18.4583 4.06823 18.6779 4.12052 18.9006 4.12006C19.2361 4.11722 19.559 3.99166 19.8082 3.7671C20.0575 3.54253 20.2159 3.23449 20.2536 2.90111C20.2913 2.56774 20.2057 2.23209 20.0129 1.95752C19.8201 1.68295 19.5335 1.48845 19.2071 1.41074C18.8807 1.33303 18.5372 1.37748 18.2413 1.53571C17.9455 1.69393 17.7178 1.95498 17.6012 2.26958C17.4846 2.58418 17.4872 2.93057 17.6086 3.24337C17.7299 3.55617 17.9615 3.81374 18.2597 3.96746Z" fill="black"/>
<path d="M23.5899 2.59411C23.7884 2.69487 24.0081 2.74717 24.2308 2.74671C24.5398 2.74972 24.8409 2.64838 25.0852 2.45908C25.3296 2.26978 25.5029 2.00358 25.5772 1.70355C25.6515 1.40352 25.6225 1.0872 25.4947 0.805743C25.3669 0.524289 25.148 0.294165 24.8732 0.15259C24.5494 -0.0173873 24.1714 -0.0517871 23.8223 0.0569581C23.4731 0.165703 23.1815 0.408686 23.0115 0.732452C22.8416 1.05622 22.8072 1.43425 22.9159 1.78338C23.0246 2.1325 23.2676 2.42414 23.5914 2.59411H23.5899Z" fill="black"/>
<path d="M28.5048 3.78741C28.7034 3.88817 28.9231 3.94046 29.1457 3.94C29.4812 3.93716 29.8041 3.81161 30.0533 3.58704C30.3026 3.36248 30.461 3.05443 30.4988 2.72106C30.5365 2.38768 30.4508 2.05203 30.258 1.77746C30.0652 1.50289 29.7786 1.3084 29.4522 1.23069C29.1258 1.15298 28.7823 1.19743 28.4864 1.35565C28.1906 1.51387 27.9629 1.77492 27.8463 2.08952C27.7297 2.40412 27.7324 2.75051 27.8537 3.06331C27.975 3.37611 28.2066 3.63368 28.5048 3.78741Z" fill="black"/>
<path d="M34.5429 16.5978C34.6523 16.6279 34.7652 16.6433 34.8786 16.6436C35.2354 16.6487 35.5807 16.5174 35.844 16.2766C36.1073 16.0358 36.2688 15.7035 36.2955 15.3477C36.3222 14.9919 36.2121 14.6393 35.9877 14.3619C35.7633 14.0844 35.4415 13.9031 35.0879 13.8549C34.7343 13.8067 34.3757 13.8952 34.0852 14.1024C33.7947 14.3096 33.5942 14.6199 33.5247 14.9699C33.4551 15.3199 33.5218 15.6832 33.711 15.9857C33.9002 16.2882 34.1978 16.5072 34.5429 16.5978Z" fill="black"/>
<path d="M34.7231 21.5876C34.9047 21.5876 35.0846 21.5516 35.2522 21.4817C35.4198 21.4117 35.5719 21.3092 35.6996 21.18C35.8274 21.0509 35.9282 20.8977 35.9963 20.7293C36.0644 20.5609 36.0985 20.3807 36.0964 20.199V20.1426C36.0964 19.7763 35.9509 19.425 35.692 19.1661C35.433 18.9071 35.0817 18.7616 34.7155 18.7616C34.3492 18.7616 33.9979 18.9071 33.739 19.1661C33.48 19.425 33.3345 19.7763 33.3345 20.1426V20.2036C33.3384 20.5706 33.486 20.9215 33.7456 21.1811C34.0051 21.4407 34.356 21.5882 34.7231 21.5922V21.5876Z" fill="black"/>
<path d="M34.1035 11.5682C34.3021 11.669 34.5217 11.7213 34.7444 11.7208C35.0799 11.718 35.4027 11.5924 35.652 11.3679C35.9012 11.1433 36.0597 10.8353 36.0974 10.5019C36.1351 10.1685 36.0495 9.83286 35.8567 9.55829C35.6639 9.28372 35.3772 9.08922 35.0508 9.01151C34.7244 8.9338 34.3809 8.97826 34.0851 9.13648C33.7892 9.2947 33.5615 9.55575 33.4449 9.87035C33.3284 10.185 33.331 10.5313 33.4523 10.8441C33.5736 11.1569 33.8053 11.4145 34.1035 11.5682Z" fill="black"/>
<path d="M32.4264 7.26201C32.5819 7.32312 32.7476 7.35419 32.9147 7.35356C33.2622 7.35561 33.5979 7.22757 33.8558 6.99463C34.1137 6.76169 34.2751 6.4407 34.3082 6.09478C34.3414 5.74887 34.244 5.40305 34.0351 5.12534C33.8262 4.84763 33.5209 4.65813 33.1794 4.59408C32.8378 4.53004 32.4847 4.5961 32.1894 4.77927C31.8941 4.96244 31.678 5.24947 31.5836 5.58391C31.4892 5.91835 31.5233 6.27601 31.6793 6.58654C31.8353 6.89708 32.1018 7.13803 32.4264 7.26201Z" fill="black"/>
<path d="M46.8559 34.662C46.9652 34.6922 47.0781 34.7076 47.1916 34.7078C47.5484 34.7129 47.8937 34.5816 48.157 34.3408C48.4203 34.1 48.5818 33.7678 48.6085 33.4119C48.6352 33.0561 48.5251 32.7035 48.3007 32.4261C48.0763 32.1486 47.7544 31.9673 47.4009 31.9191C47.0473 31.8709 46.6887 31.9594 46.3982 32.1666C46.1077 32.3738 45.9072 32.6841 45.8377 33.0341C45.7681 33.3841 45.8348 33.7474 46.024 34.0499C46.2132 34.3525 46.5107 34.5714 46.8559 34.662Z" fill="black"/>
<path d="M46.8559 29.6935C46.9652 29.7237 47.0781 29.7391 47.1916 29.7393C47.5484 29.7444 47.8937 29.6131 48.157 29.3723C48.4203 29.1315 48.5818 28.7993 48.6085 28.4434C48.6352 28.0876 48.5251 27.735 48.3007 27.4576C48.0763 27.1802 47.7544 26.9988 47.4009 26.9506C47.0473 26.9024 46.6887 26.9909 46.3982 27.1981C46.1077 27.4053 45.9072 27.7156 45.8377 28.0656C45.7681 28.4156 45.8348 28.7789 46.024 29.0814C46.2132 29.384 46.5107 29.6029 46.8559 29.6935Z" fill="black"/>
<path d="M47.1992 39.6519C47.3808 39.6519 47.5607 39.6159 47.7283 39.5459C47.8959 39.4759 48.048 39.3734 48.1757 39.2442C48.3034 39.1151 48.4043 38.9619 48.4724 38.7935C48.5405 38.6251 48.5745 38.4449 48.5725 38.2632V38.2022C48.5725 37.8359 48.427 37.4847 48.168 37.2257C47.9091 36.9667 47.5578 36.8212 47.1915 36.8212C46.8253 36.8212 46.474 36.9667 46.215 37.2257C45.956 37.4847 45.8105 37.8359 45.8105 38.2022V38.2632C45.8145 38.6303 45.9621 38.9812 46.2217 39.2408C46.4812 39.5003 46.8321 39.6479 47.1992 39.6519Z" fill="black"/>
<path d="M48.6777 25.4635C48.8763 25.5643 49.0959 25.6166 49.3186 25.6161C49.6541 25.6133 49.9769 25.4878 50.2262 25.2632C50.4755 25.0386 50.6339 24.7306 50.6716 24.3972C50.7093 24.0638 50.6237 23.7282 50.4309 23.4536C50.2381 23.179 49.9514 22.9845 49.625 22.9068C49.2987 22.8291 48.9551 22.8736 48.6593 23.0318C48.3634 23.19 48.1357 23.4511 48.0192 23.7657C47.9026 24.0803 47.9052 24.4267 48.0265 24.7395C48.1478 25.0523 48.3795 25.3098 48.6777 25.4635Z" fill="black"/>
<path d="M57.385 22.8649C57.5836 22.9656 57.8032 23.0179 58.0259 23.0175C58.3614 23.0146 58.6842 22.8891 58.9335 22.6645C59.1827 22.4399 59.3412 22.1319 59.3789 21.7985C59.4166 21.4651 59.331 21.1295 59.1382 20.8549C58.9454 20.5803 58.6587 20.3858 58.3323 20.3081C58.0059 20.2304 57.6624 20.2749 57.3666 20.4331C57.0707 20.5913 56.843 20.8524 56.7264 21.167C56.6099 21.4816 56.6125 21.828 56.7338 22.1408C56.8551 22.4536 57.0868 22.7111 57.385 22.8649Z" fill="black"/>
<path d="M51.8715 21.1024C51.703 21.4264 51.6693 21.8039 51.778 22.1527C51.8866 22.5014 52.1286 22.793 52.4514 22.964C52.65 23.0648 52.8696 23.1171 53.0923 23.1166C53.3353 23.1156 53.5737 23.05 53.7831 22.9267C53.9925 22.8033 54.1655 22.6266 54.2843 22.4146C54.403 22.2026 54.4635 21.9629 54.4593 21.7199C54.4552 21.4769 54.3866 21.2393 54.2606 21.0315C54.1347 20.8236 53.9558 20.653 53.7423 20.5368C53.5288 20.4207 53.2883 20.3633 53.0454 20.3705C52.8025 20.3778 52.5658 20.4493 52.3596 20.5779C52.1534 20.7064 51.9849 20.8874 51.8715 21.1024Z" fill="black"/>
<path d="M61.1906 25.1416C61.3892 25.2423 61.6088 25.2946 61.8315 25.2942C62.167 25.2913 62.4899 25.1658 62.7391 24.9412C62.9884 24.7166 63.1468 24.4086 63.1845 24.0752C63.2223 23.7418 63.1366 23.4062 62.9438 23.1316C62.751 22.8571 62.4644 22.6626 62.138 22.5848C61.8116 22.5071 61.4681 22.5516 61.1722 22.7098C60.8764 22.868 60.6487 23.1291 60.5321 23.4437C60.4155 23.7583 60.4181 24.1047 60.5395 24.4175C60.6608 24.7303 60.8924 24.9878 61.1906 25.1416Z" fill="black"/>
<path d="M63.7756 34.662C63.8849 34.6922 63.9978 34.7076 64.1113 34.7078C64.4681 34.7129 64.8134 34.5816 65.0767 34.3408C65.34 34.1 65.5015 33.7678 65.5282 33.4119C65.5549 33.0561 65.4448 32.7035 65.2204 32.4261C64.996 32.1486 64.6741 31.9673 64.3206 31.9191C63.967 31.8709 63.6084 31.9594 63.3179 32.1666C63.0274 32.3738 62.8269 32.6841 62.7573 33.0341C62.6878 33.3841 62.7544 33.7474 62.9437 34.0499C63.1329 34.3525 63.4304 34.5714 63.7756 34.662Z" fill="black"/>
<path d="M63.5239 29.7561C63.6332 29.7862 63.7461 29.8016 63.8596 29.8018C64.2164 29.8069 64.5617 29.6757 64.825 29.4349C65.0883 29.1941 65.2498 28.8618 65.2765 28.506C65.3032 28.1502 65.1931 27.7976 64.9687 27.5201C64.7443 27.2427 64.4224 27.0614 64.0689 27.0132C63.7153 26.965 63.3567 27.0535 63.0662 27.2607C62.7756 27.4679 62.5752 27.7782 62.5056 28.1281C62.4361 28.4781 62.5027 28.8415 62.692 29.144C62.8812 29.4465 63.1787 29.6654 63.5239 29.7561Z" fill="black"/>
<path d="M63.9023 39.6519C64.0839 39.6519 64.2638 39.6159 64.4314 39.5459C64.599 39.4759 64.7511 39.3734 64.8788 39.2442C65.0066 39.1151 65.1074 38.9619 65.1755 38.7935C65.2436 38.6251 65.2777 38.4449 65.2756 38.2632V38.2022C65.2756 37.8359 65.1302 37.4847 64.8712 37.2257C64.6122 36.9667 64.2609 36.8212 63.8947 36.8212C63.5284 36.8212 63.1771 36.9667 62.9182 37.2257C62.6592 37.4847 62.5137 37.8359 62.5137 38.2022V38.2632C62.5176 38.6303 62.6652 38.9812 62.9248 39.2408C63.1843 39.5003 63.5352 39.6479 63.9023 39.6519Z" fill="black"/>
<path d="M64.5645 27.1909C64.2405 27.0224 63.863 26.9888 63.5143 27.0974C63.1655 27.206 62.8739 27.4481 62.7029 27.7708" fill="black"/>
</g>
<defs>
<clipPath id="clip0">
<rect width="75.3134" height="70" fill="white"/>
</clipPath>
</defs>
</svg>