<svg width="75" height="75" viewBox="0 0 75 75" fill="none" xmlns="http://www.w3.org/2000/svg">
<path d="M27.3744 27.4357H18.9338V39.8438H27.3744V27.4357Z" fill="#A7A9AC"/>
<path d="M41.7125 11.7953H33.272V39.8437H41.7125V11.7953Z" fill="#3C92CA"/>
<path d="M8.25674 51.2715H67.0343C69.1942 51.2715 70.9406 49.5251 70.9406 47.3652V3.14035H73.606C74.3719 3.14035 75 2.51228 75 1.74635C75 0.980419 74.3719 0.352356 73.606 0.352356H1.394C0.628064 0.352356 0 0.980419 0 1.74635C0 2.51228 0.628064 3.14035 1.394 3.14035H4.35049V47.3652C4.35049 49.5251 6.09681 51.2715 8.25674 51.2715ZM68.1526 47.3652C68.1526 47.9933 67.6471 48.4988 67.019 48.4988H8.25674C7.62868 48.4988 7.12316 47.9933 7.12316 47.3652V3.14035H68.1526V47.3652Z" fill="black"/>
<path d="M37.6686 74.6477C38.4345 74.6477 39.0626 74.0197 39.0626 73.2537V65.4259L47.8249 74.1882C48.1006 74.4639 48.4529 74.6018 48.8053 74.6018C49.1576 74.6018 49.5099 74.4639 49.7857 74.1882C50.3218 73.652 50.3218 72.7635 49.7857 72.2274L39.0626 61.5043V57.3683H44.608C45.3739 57.3683 46.0019 56.7402 46.0019 55.9743C46.0019 55.2084 45.3739 54.5803 44.608 54.5803H30.7599C29.994 54.5803 29.3659 55.2084 29.3659 55.9743C29.3659 56.7402 29.994 57.3683 30.7599 57.3683H36.2746V61.5043L25.5056 72.2733C24.9695 72.8095 24.9695 73.698 25.5056 74.2341C25.7814 74.5098 26.1337 74.6477 26.486 74.6477C26.8383 74.6477 27.1907 74.5098 27.4664 74.2341L36.2746 65.4259V73.2537C36.2746 74.0197 36.9027 74.6477 37.6686 74.6477Z" fill="black"/>
<path d="M18.9339 41.2224H27.3897C28.1557 41.2224 28.7837 40.5944 28.7837 39.8285V27.4204C28.7837 26.6544 28.1557 26.0264 27.3897 26.0264H18.9492C18.1832 26.0264 17.5552 26.6544 17.5552 27.4204V39.8285C17.5552 40.6097 18.1679 41.2224 18.9339 41.2224ZM20.3278 28.8297H25.9957V38.4651H20.3278V28.8297Z" fill="black"/>
<path d="M47.6103 41.2224H56.0509C56.8168 41.2224 57.4448 40.5944 57.4448 39.8284V20.2666C57.4448 19.5006 56.8168 18.8726 56.0509 18.8726H47.6103C46.8444 18.8726 46.2163 19.5006 46.2163 20.2666V39.8438C46.2316 40.6097 46.8444 41.2224 47.6103 41.2224ZM49.0043 21.6452H54.6722V38.4498H49.0043V21.6452Z" fill="black"/>
<path d="M33.2719 41.2224H41.7125C42.4784 41.2224 43.1065 40.5944 43.1065 39.8285V11.7954C43.1065 11.0294 42.4784 10.4014 41.7125 10.4014H33.2719C32.506 10.4014 31.8779 11.0294 31.8779 11.7954V39.8438C31.8932 40.6097 32.506 41.2224 33.2719 41.2224ZM34.6659 13.174H40.3338V38.4498H34.6659V13.174Z" fill="black"/>
</svg>